<?xml version="1.0" encoding="utf-8"?>
<!-- Generated by IcoMoon.io -->
<!DOCTYPE svg PUBLIC "-//W3C//DTD SVG 1.1//EN" "http://www.w3.org/Graphics/SVG/1.1/DTD/svg11.dtd">
<svg version="1.1" xmlns="http://www.w3.org/2000/svg" xmlns:xlink="http://www.w3.org/1999/xlink" width="512" height="512" viewBox="0 0 512 512">
<g>
</g>
	<path d="M7029.965 37002.681c0 15.394-12.48 27.874-27.873 27.874-15.394 0-27.873-12.48-27.873-27.874 0-15.394 12.48-27.874 27.873-27.874 15.394 0 27.873 12.48 27.873 27.874z" fill="#000000" />
	<path d="M6832.282 37085.624l-1.218 0.215-1.177 0.563z" fill="#000000" />
	<path d="M6870.681 37069.957l-0.051-0.502c-0.113-0.942-0.072-1.863-0.041-2.775l-39.526 19.149 1.218-0.215-2.386 0.778 1.167-0.563-20.89 3.645 30.966 5.56 34.498-12.165-4.792-12.462-0.164-0.45z" fill="#000000" />
	<path d="M6844.068 37101.056l-2.233-0.399-2.099 0.707z" fill="#000000" />
	<path d="M6877.44 37088.921l-35.605 11.735 2.233 0.399-4.332 0.297 2.099-0.696-72.212-12.861-2.663 1.382-26.276 23.327 29.757-6.533-0.973-0.185 5.611-0.84-4.639 1.024 72.704 12.944 2.15-0.696 47.626-15.719c-3.123-0.717-6.073-2.038-8.663-4.065-3.175-2.519-5.448-5.817-6.82-9.513z" fill="#000000" />
	<path d="M6769.48 37105.797l0.973 0.185 4.639-1.024z" fill="#000000" />
	<path d="M6878.535 37067.366c0 0.297-0.113 0.573-0.092 0.912l4.598 11.981 1.813-0.645-6.318-12.247z" fill="#000000" />
	<path d="M6885.079 37086.402c0.87 2.253 2.119 4.321 4.065 5.857 2.898 2.304 6.502 3.318 10.168 2.898 0 0 2.498-0.297 6.38-0.738l-4.403-13.363-16.21 5.346z" fill="#000000" />
	<path d="M6997.391 37038.622h-0.092l0.020 0.082z" fill="#000000" />
	<path d="M6876.16 37083.904c0.041 0.256 0.133 0.522 0.174 0.778l0.072 0.185-0.246-0.963z" fill="#000000" />
	<path d="M6978.887 37030.635l0.123 0.020 0.409-0.103z" fill="#000000" />
	<path d="M6878.434 37068.575c-0.020-0.113 0.020-0.215 0.020-0.287l-0.246-0.676 0.225 0.963z" fill="#000000" />
	<path d="M7061.985 37029.868l-63.815 12.585-24.167 5.264c5.427 6.082 18.473 16.589 31.181 29.122l60.877-32.082 184.709 7.004 2.078-11.315-190.864-10.578z" fill="#000000" />
	<path d="M7081.626 37082.696l-6.451-4.188-5.52 5.468z" fill="#000000" />
	<path d="M7102.331 37051.556l-27.157 26.952 6.451 4.188-11.971 1.28 5.52-5.468-27.648-17.838-19.671 10.086 49.89 32.226 5.499-5.478 43.12-44.964z" fill="#000000" />
	<path d="M7029.637 37089.065l-5.673-4.649-6.492 5.223z" fill="#000000" />
	<path d="M7066.736 37050.204l-42.773 34.212 5.673 4.649-12.165 0.573 6.492-5.223-8.766-7.137-10.834 5.56-3.4-2.704-34.97-33.26-8.468 11.796 66.959 50.463 5.878-5.315 58.675-52.9z" fill="#000000" />
	<path d="M6970.43 37040.702l-3.789 5.274 7.711-2.079z" fill="#000000" />
	<path d="M6965.412 37046.302l0.583 0.573 0.645-0.901z" fill="#000000" />
	<path d="M6966.641 37045.975l7.711-2.079c0 0 16.773-3.881 18.821-4.423-2.222-5.683-7.824-9.503-14.162-8.817l-88.412 22.518c-7.178 0.84-12.267 7.096-12.052 14.192l6.318 12.247-1.813 0.645 0.686 1.792 0.185 0.45 0.051 0.502c0.133 1.198 0.666 2.304 1.106 3.399l16.22-5.335 4.403 13.363c19.763-2.304 79.544-9.277 79.565-9.277 2.058-0.215 3.953-1.116 5.703-2.283l-12.913-24.535-12.052-11.448 0.635-0.912z" fill="#000000" />
	<path d="M413.788 150.313c0 26.054-21.122 47.175-47.175 47.175s-47.175-21.121-47.175-47.175c0-26.055 21.122-47.175 47.175-47.175 26.055 0 47.175 21.121 47.175 47.175z" fill="#000000" />
	<path d="M127.242 209.439v0c3.266-3.471 7.455-6.287 12.206-8.243l-104.254-131.686-2.16-7.69-28.488 22.21 8.284 4.485 107.264 135.742c0.717-5.571 3.236-10.629 7.147-14.817z" fill="#000000" />
	<path d="M507.454 214.149h-176.313c3.625 4.792 5.642 10.383 5.529 16.118l-0.021 1.044-0.42 0.942c0 0-2.673 6.113-5.827 13.333h177.050v-31.437z" fill="#000000" />
	<path d="M137.278 290.058v175.923h66.243l-36.638-20.439v-151.347c-7.885-0.144-12.821-0.215-12.821-0.215-5.99-0.082-11.714-1.536-16.784-3.922z" fill="#000000" />
	<path d="M270.291 46.008l56.137 181.685-30.015 9.274-56.137-181.685 30.015-9.274z" fill="#000000" />
	<path d="M158.69 284.836c-15.524-0.256-27.976-10.137-27.802-22.087l0.482-33.054c0.205-11.95 12.923-21.453 28.406-21.238l136.632 2.038c15.514 0.226 27.976 10.107 27.76 22.067l-15.002 32.973c-4.26 10.844-16.763 21.504-32.286 21.289l-118.19-1.986z" fill="#000000" />
</svg>
